<svg width="64" height="64" viewBox="0 0 64 64" fill="none" xmlns="http://www.w3.org/2000/svg">
<mask id="mask0_2_1027" style="mask-type:alpha" maskUnits="userSpaceOnUse" x="0" y="0" width="64" height="64">
<rect width="64" height="64" fill="#D9D9D9"/>
</mask>
<g mask="url(#mask0_2_1027)">
<path d="M32.0087 56C28.69 56 25.5698 55.3702 22.648 54.1107C19.7267 52.8511 17.1853 51.1418 15.024 48.9827C12.8627 46.8236 11.1518 44.2844 9.89133 41.3653C8.63044 38.4467 8 35.3278 8 32.0087C8 28.69 8.62978 25.5698 9.88933 22.648C11.1489 19.7267 12.8582 17.1853 15.0173 15.024C17.1764 12.8627 19.7156 11.1518 22.6347 9.89133C25.5533 8.63044 28.6722 8 31.9913 8C35.31 8 38.4302 8.62978 41.352 9.88934C44.2733 11.1489 46.8147 12.8582 48.976 15.0173C51.1373 17.1764 52.8482 19.7156 54.1087 22.6347C55.3696 25.5533 56 28.6722 56 31.9913C56 35.31 55.3702 38.4302 54.1107 41.352C52.8511 44.2733 51.1418 46.8147 48.9827 48.976C46.8236 51.1373 44.2844 52.8482 41.3653 54.1087C38.4467 55.3696 35.3278 56 32.0087 56ZM35.764 33.3333L31.0567 38.0413C30.8069 38.2907 30.6907 38.588 30.708 38.9333C30.7249 39.2787 30.8582 39.576 31.108 39.8253C31.3573 40.0751 31.666 40.2 32.034 40.2C32.402 40.2 32.7051 40.0751 32.9433 39.8253L39.2613 33.508C39.6924 33.0769 39.908 32.5742 39.908 32C39.908 31.4258 39.6924 30.9231 39.2613 30.492L32.892 24.1233C32.6427 23.8736 32.3453 23.7487 32 23.7487C31.6547 23.7487 31.3573 23.8736 31.108 24.1233C30.8582 24.3727 30.7333 24.6813 30.7333 25.0493C30.7333 25.4178 30.8582 25.7209 31.108 25.9587L35.764 30.6667H24C23.6222 30.6667 23.3056 30.7947 23.05 31.0507C22.7944 31.3067 22.6667 31.6238 22.6667 32.002C22.6667 32.3802 22.7944 32.6967 23.05 32.9513C23.3056 33.206 23.6222 33.3333 24 33.3333H35.764Z" fill="#1C1B1F"/>
</g>
</svg>
