<svg width="64" height="64" viewBox="0 0 64 64" fill="none" xmlns="http://www.w3.org/2000/svg">
<mask id="mask0_2_1024" style="mask-type:alpha" maskUnits="userSpaceOnUse" x="0" y="0" width="64" height="64">
<rect width="64" height="64" fill="#D9D9D9"/>
</mask>
<g mask="url(#mask0_2_1024)">
<path d="M28.236 33.3333H40C40.3778 33.3333 40.6944 33.2053 40.95 32.9493C41.2056 32.6933 41.3333 32.3762 41.3333 31.998C41.3333 31.6198 41.2056 31.3033 40.95 31.0487C40.6944 30.794 40.3778 30.6667 40 30.6667H28.236L32.9433 25.9587C33.1931 25.7209 33.318 25.4178 33.318 25.0493C33.318 24.6813 33.1931 24.3727 32.9433 24.1233C32.694 23.8736 32.3853 23.7487 32.0173 23.7487C31.6489 23.7487 31.3458 23.8736 31.108 24.1233L24.7387 30.492C24.3076 30.9231 24.092 31.4258 24.092 32C24.092 32.5742 24.3076 33.0769 24.7387 33.508L31.108 39.8767C31.3573 40.1264 31.6631 40.2427 32.0253 40.2253C32.388 40.2084 32.694 40.0751 32.9433 39.8253C33.1931 39.576 33.318 39.2673 33.318 38.8993C33.318 38.5313 33.1931 38.2282 32.9433 37.99L28.236 33.3333ZM32.0087 56C28.69 56 25.5698 55.3702 22.648 54.1107C19.7267 52.8511 17.1853 51.1418 15.024 48.9827C12.8627 46.8236 11.1518 44.2844 9.89133 41.3653C8.63044 38.4467 8 35.3278 8 32.0087C8 28.69 8.62978 25.5698 9.88933 22.648C11.1489 19.7267 12.8582 17.1853 15.0173 15.024C17.1764 12.8627 19.7156 11.1518 22.6347 9.89133C25.5533 8.63044 28.6722 8 31.9913 8C35.31 8 38.4302 8.62978 41.352 9.88934C44.2733 11.1489 46.8147 12.8582 48.976 15.0173C51.1373 17.1764 52.8482 19.7156 54.1087 22.6347C55.3696 25.5533 56 28.6722 56 31.9913C56 35.31 55.3702 38.4302 54.1107 41.352C52.8511 44.2733 51.1418 46.8147 48.9827 48.976C46.8236 51.1373 44.2844 52.8482 41.3653 54.1087C38.4467 55.3696 35.3278 56 32.0087 56ZM32 53.3333C37.9556 53.3333 43 51.2667 47.1333 47.1333C51.2667 43 53.3333 37.9556 53.3333 32C53.3333 26.0444 51.2667 21 47.1333 16.8667C43 12.7333 37.9556 10.6667 32 10.6667C26.0444 10.6667 21 12.7333 16.8667 16.8667C12.7333 21 10.6667 26.0444 10.6667 32C10.6667 37.9556 12.7333 43 16.8667 47.1333C21 51.2667 26.0444 53.3333 32 53.3333Z" fill="#94A3B8"/>
</g>
</svg>
