<svg width="24" height="24" viewBox="0 0 24 24" fill="none" xmlns="http://www.w3.org/2000/svg">
<mask id="mask0_16_20" style="mask-type:alpha" maskUnits="userSpaceOnUse" x="0" y="0" width="24" height="24">
<rect width="24" height="24" fill="#D9D9D9"/>
</mask>
<g mask="url(#mask0_16_20)">
<path d="M12 14.9499C11.8667 14.9499 11.7417 14.9291 11.625 14.8874C11.5083 14.8457 11.4 14.7749 11.3 14.6749L6.69999 10.0749C6.51665 9.89157 6.42499 9.65824 6.42499 9.3749C6.42499 9.09157 6.51665 8.85824 6.69999 8.6749C6.88332 8.49157 7.11665 8.3999 7.39999 8.3999C7.68332 8.3999 7.91665 8.49157 8.09999 8.6749L12 12.5749L15.9 8.6749C16.0833 8.49157 16.3167 8.3999 16.6 8.3999C16.8833 8.3999 17.1167 8.49157 17.3 8.6749C17.4833 8.85824 17.575 9.09157 17.575 9.3749C17.575 9.65824 17.4833 9.89157 17.3 10.0749L12.7 14.6749C12.6 14.7749 12.4917 14.8457 12.375 14.8874C12.2583 14.9291 12.1333 14.9499 12 14.9499Z" fill="#1C1B1F"/>
</g>
</svg>
