<svg width="142" height="40" viewBox="0 0 142 40" fill="none" xmlns="http://www.w3.org/2000/svg">
<path d="M46.15 28.2576V25.3576H48.45V13.6576H46.15V10.7576H55.15C56.2167 10.7576 57.1417 10.9409 57.925 11.3076C58.725 11.6576 59.3417 12.1659 59.775 12.8326C60.225 13.4826 60.45 14.2659 60.45 15.1826V15.4326C60.45 16.2326 60.3 16.8909 60 17.4076C59.7 17.9076 59.3417 18.2993 58.925 18.5826C58.525 18.8493 58.1417 19.0409 57.775 19.1576V19.6076C58.1417 19.7076 58.5417 19.8993 58.975 20.1826C59.4084 20.4493 59.775 20.8409 60.075 21.3576C60.3917 21.8743 60.55 22.5493 60.55 23.3826V23.6326C60.55 24.5993 60.325 25.4326 59.875 26.1326C59.425 26.8159 58.8 27.3409 58 27.7076C57.2167 28.0743 56.3 28.2576 55.25 28.2576H46.15ZM51.75 25.2576H54.85C55.5667 25.2576 56.1417 25.0826 56.575 24.7326C57.025 24.3826 57.25 23.8826 57.25 23.2326V22.9826C57.25 22.3326 57.0334 21.8326 56.6 21.4826C56.1667 21.1326 55.5834 20.9576 54.85 20.9576H51.75V25.2576ZM51.75 17.9576H54.8C55.4834 17.9576 56.0417 17.7826 56.475 17.4326C56.925 17.0826 57.15 16.5993 57.15 15.9826V15.7326C57.15 15.0993 56.9334 14.6159 56.5 14.2826C56.0667 13.9326 55.5 13.7576 54.8 13.7576H51.75V17.9576Z" fill="#475569"/>
<path d="M68.0016 28.6076C66.7683 28.6076 65.6599 28.3576 64.6766 27.8576C63.6933 27.3576 62.9183 26.6326 62.3516 25.6826C61.7849 24.7326 61.5016 23.5909 61.5016 22.2576V21.8576C61.5016 20.5243 61.7849 19.3826 62.3516 18.4326C62.9183 17.4826 63.6933 16.7576 64.6766 16.2576C65.6599 15.7576 66.7683 15.5076 68.0016 15.5076C69.2349 15.5076 70.3433 15.7576 71.3266 16.2576C72.3099 16.7576 73.0849 17.4826 73.6516 18.4326C74.2183 19.3826 74.5016 20.5243 74.5016 21.8576V22.2576C74.5016 23.5909 74.2183 24.7326 73.6516 25.6826C73.0849 26.6326 72.3099 27.3576 71.3266 27.8576C70.3433 28.3576 69.2349 28.6076 68.0016 28.6076ZM68.0016 25.8076C68.9683 25.8076 69.7683 25.4993 70.4016 24.8826C71.0349 24.2493 71.3516 23.3493 71.3516 22.1826V21.9326C71.3516 20.7659 71.0349 19.8743 70.4016 19.2576C69.7849 18.6243 68.9849 18.3076 68.0016 18.3076C67.0349 18.3076 66.2349 18.6243 65.6016 19.2576C64.9683 19.8743 64.6516 20.7659 64.6516 21.9326V22.1826C64.6516 23.3493 64.9683 24.2493 65.6016 24.8826C66.2349 25.4993 67.0349 25.8076 68.0016 25.8076Z" fill="#475569"/>
<path d="M76.1592 28.2576V10.7576H79.3092V28.2576H76.1592Z" fill="#475569"/>
<path d="M86.2998 28.2576C85.4832 28.2576 84.8165 28.0076 84.2998 27.5076C83.7998 26.9909 83.5498 26.3076 83.5498 25.4576V18.4576H80.4498V15.8576H83.5498V12.0076H86.6998V15.8576H90.0998V18.4576H86.6998V24.9076C86.6998 25.4076 86.9332 25.6576 87.3998 25.6576H89.7998V28.2576H86.2998Z" fill="#475569"/>
<path d="M96.8512 28.6076C95.2345 28.6076 93.9095 28.2576 92.8762 27.5576C91.8429 26.8576 91.2179 25.8576 91.0012 24.5576L93.9012 23.8076C94.0179 24.3909 94.2095 24.8493 94.4762 25.1826C94.7595 25.5159 95.1012 25.7576 95.5012 25.9076C95.9179 26.0409 96.3679 26.1076 96.8512 26.1076C97.5845 26.1076 98.1262 25.9826 98.4762 25.7326C98.8262 25.4659 99.0012 25.1409 99.0012 24.7576C99.0012 24.3743 98.8345 24.0826 98.5012 23.8826C98.1679 23.6659 97.6345 23.4909 96.9012 23.3576L96.2012 23.2326C95.3345 23.0659 94.5429 22.8409 93.8262 22.5576C93.1095 22.2576 92.5345 21.8493 92.1012 21.3326C91.6679 20.8159 91.4512 20.1493 91.4512 19.3326C91.4512 18.0993 91.9012 17.1576 92.8012 16.5076C93.7012 15.8409 94.8845 15.5076 96.3512 15.5076C97.7345 15.5076 98.8845 15.8159 99.8012 16.4326C100.718 17.0493 101.318 17.8576 101.601 18.8576L98.6762 19.7576C98.5429 19.1243 98.2679 18.6743 97.8512 18.4076C97.4512 18.1409 96.9512 18.0076 96.3512 18.0076C95.7512 18.0076 95.2929 18.1159 94.9762 18.3326C94.6595 18.5326 94.5012 18.8159 94.5012 19.1826C94.5012 19.5826 94.6679 19.8826 95.0012 20.0826C95.3345 20.2659 95.7845 20.4076 96.3512 20.5076L97.0512 20.6326C97.9845 20.7993 98.8262 21.0243 99.5762 21.3076C100.343 21.5743 100.943 21.9659 101.376 22.4826C101.826 22.9826 102.051 23.6659 102.051 24.5326C102.051 25.8326 101.576 26.8409 100.626 27.5576C99.6929 28.2576 98.4345 28.6076 96.8512 28.6076Z" fill="#475569"/>
<path d="M103.562 28.2576V10.7576H106.712V17.3826H107.162C107.295 17.1159 107.503 16.8493 107.787 16.5826C108.07 16.3159 108.445 16.0993 108.912 15.9326C109.395 15.7493 110.003 15.6576 110.737 15.6576C111.703 15.6576 112.545 15.8826 113.262 16.3326C113.995 16.7659 114.562 17.3743 114.962 18.1576C115.362 18.9243 115.562 19.8243 115.562 20.8576V28.2576H112.412V21.1076C112.412 20.1743 112.178 19.4743 111.712 19.0076C111.262 18.5409 110.612 18.3076 109.762 18.3076C108.795 18.3076 108.045 18.6326 107.512 19.2826C106.978 19.9159 106.712 20.8076 106.712 21.9576V28.2576H103.562Z" fill="#475569"/>
<path d="M117.717 28.2576V15.8576H120.867V28.2576H117.717ZM119.292 14.4076C118.725 14.4076 118.242 14.2243 117.842 13.8576C117.458 13.4909 117.267 13.0076 117.267 12.4076C117.267 11.8076 117.458 11.3243 117.842 10.9576C118.242 10.5909 118.725 10.4076 119.292 10.4076C119.875 10.4076 120.358 10.5909 120.742 10.9576C121.125 11.3243 121.317 11.8076 121.317 12.4076C121.317 13.0076 121.125 13.4909 120.742 13.8576C120.358 14.2243 119.875 14.4076 119.292 14.4076Z" fill="#475569"/>
<path d="M125.157 28.2576V18.4576H122.007V15.8576H125.157V13.5576C125.157 12.7076 125.407 12.0326 125.907 11.5326C126.424 11.0159 127.091 10.7576 127.907 10.7576H131.157V13.3576H129.007C128.541 13.3576 128.307 13.6076 128.307 14.1076V15.8576H131.557V18.4576H128.307V28.2576H125.157Z" fill="#475569"/>
<path d="M137.252 28.2576C136.435 28.2576 135.769 28.0076 135.252 27.5076C134.752 26.9909 134.502 26.3076 134.502 25.4576V18.4576H131.402V15.8576H134.502V12.0076H137.652V15.8576H141.052V18.4576H137.652V24.9076C137.652 25.4076 137.885 25.6576 138.352 25.6576H140.752V28.2576H137.252Z" fill="#475569"/>
</svg>
