<svg width="96" height="96" viewBox="0 0 96 96" fill="none" xmlns="http://www.w3.org/2000/svg">
<mask id="mask0_2_1066" style="mask-type:alpha" maskUnits="userSpaceOnUse" x="0" y="0" width="96" height="96">
<rect width="96" height="96" fill="#D9D9D9"/>
</mask>
<g mask="url(#mask0_2_1066)">
<path d="M47.8004 72.0015C49.2004 72.0015 50.3837 71.5181 51.3504 70.5515C52.317 69.5848 52.8004 68.4015 52.8004 67.0015C52.8004 65.6015 52.317 64.4181 51.3504 63.4515C50.3837 62.4848 49.2004 62.0015 47.8004 62.0015C46.4004 62.0015 45.217 62.4848 44.2504 63.4515C43.2837 64.4181 42.8004 65.6015 42.8004 67.0015C42.8004 68.4015 43.2837 69.5848 44.2504 70.5515C45.217 71.5181 46.4004 72.0015 47.8004 72.0015ZM48.0004 88.0015C42.467 88.0015 37.267 86.9515 32.4004 84.8515C27.5337 82.7515 23.3004 79.9015 19.7004 76.3015C16.1004 72.7015 13.2504 68.4681 11.1504 63.6015C9.05037 58.7348 8.00037 53.5348 8.00037 48.0015C8.00037 42.4681 9.05037 37.2681 11.1504 32.4015C13.2504 27.5348 16.1004 23.3015 19.7004 19.7015C23.3004 16.1015 27.5337 13.2515 32.4004 11.1515C37.267 9.05147 42.467 8.00146 48.0004 8.00146C53.5337 8.00146 58.7337 9.05147 63.6004 11.1515C68.467 13.2515 72.7004 16.1015 76.3004 19.7015C79.9004 23.3015 82.7504 27.5348 84.8504 32.4015C86.9504 37.2681 88.0004 42.4681 88.0004 48.0015C88.0004 53.5348 86.9504 58.7348 84.8504 63.6015C82.7504 68.4681 79.9004 72.7015 76.3004 76.3015C72.7004 79.9015 68.467 82.7515 63.6004 84.8515C58.7337 86.9515 53.5337 88.0015 48.0004 88.0015ZM48.4004 30.8015C50.067 30.8015 51.517 31.3348 52.7504 32.4015C53.9837 33.4681 54.6004 34.8015 54.6004 36.4015C54.6004 37.8681 54.1504 39.1681 53.2504 40.3015C52.3504 41.4348 51.3337 42.5015 50.2004 43.5015C48.667 44.8348 47.317 46.3015 46.1504 47.9015C44.9837 49.5015 44.4004 51.3015 44.4004 53.3015C44.4004 54.2348 44.7504 55.0181 45.4504 55.6515C46.1504 56.2848 46.967 56.6015 47.9004 56.6015C48.9004 56.6015 49.7504 56.2681 50.4504 55.6015C51.1504 54.9348 51.6004 54.1015 51.8004 53.1015C52.067 51.7015 52.667 50.4515 53.6004 49.3515C54.5337 48.2515 55.5337 47.2015 56.6004 46.2015C58.1337 44.7348 59.4504 43.1348 60.5504 41.4015C61.6504 39.6681 62.2004 37.7348 62.2004 35.6015C62.2004 32.2015 60.817 29.4181 58.0504 27.2515C55.2837 25.0848 52.067 24.0015 48.4004 24.0015C45.867 24.0015 43.4504 24.5348 41.1504 25.6015C38.8504 26.6681 37.1004 28.3015 35.9004 30.5015C35.4337 31.3015 35.2837 32.1515 35.4504 33.0515C35.617 33.9515 36.067 34.6348 36.8004 35.1015C37.7337 35.6348 38.7004 35.8015 39.7004 35.6015C40.7004 35.4015 41.5337 34.8348 42.2004 33.9015C42.9337 32.9015 43.8504 32.1348 44.9504 31.6015C46.0504 31.0681 47.2004 30.8015 48.4004 30.8015Z" fill="#CBD5E1"/>
</g>
</svg>
