<?xml version="1.0" encoding="UTF-8"?>
<svg version="1.1" xmlns="http://www.w3.org/2000/svg" width="4500" height="4500">
<path d="M0 0 C64.36164702 59.7599043 81.99258406 159.78561746 101.63330078 355.52294922 C103.56252428 408.94749996 103.11816557 462.39033369 101.3125 515.8125 C101.27713135 516.87573486 101.2417627 517.93896973 101.20532227 519.03442383 C101.02250045 523.91940667 100.76644425 528.7966143 100.40625 533.671875 C100.34115234 534.56358398 100.27605469 535.45529297 100.20898438 536.37402344 C99.8125 538.5625 99.8125 538.5625 97.8125 540.5625 C94.8101463 540.76139816 91.89999902 540.83513848 88.89648438 540.82128906 C87.51098137 540.82654602 87.51098137 540.82654602 86.0974884 540.83190918 C83.0336666 540.84073676 79.9700743 540.83487371 76.90625 540.828125 C74.78397578 540.82947135 72.66170187 540.83141164 70.53942871 540.83392334 C66.08729115 540.836876 61.63523373 540.8325724 57.18310547 540.82324219 C51.46618013 540.81184761 45.74944255 540.81840632 40.03252411 540.83038712 C35.64889095 540.83760188 31.26530257 540.83531955 26.88166809 540.83013153 C24.77325926 540.82879397 22.6648464 540.83044644 20.55644226 540.83509064 C17.61368994 540.84014956 14.67124496 540.83245454 11.72851562 540.82128906 C10.85052811 540.82533752 9.97254059 540.82938599 9.06794739 540.83355713 C3.04102766 540.79102766 3.04102766 540.79102766 0.8125 538.5625 C0.63587637 536.01345268 0.58253869 533.58615198 0.62890625 531.0390625 C0.63628311 530.28098297 0.64365997 529.52290344 0.65126038 528.74185181 C0.76595508 520.4606918 1.24045545 512.20204201 1.75 503.9375 C3.55574123 474.48695796 4.02087138 445.05937789 4 415.5625 C3.99973312 414.71232048 3.99946625 413.86214096 3.99919128 412.98619843 C3.96720915 331.51887877 0.70594897 247.06813109 -65.4375 90.8125 C-80.65700503 76.10745711 -99.29046065 69.07441699 -120.32788086 69.13305664 C-163.15155773 70.03219518 -202.70661029 100.13230255 -233.6171875 127.18896484 C-234.70952617 128.14442153 -235.80621848 129.09491429 -236.90625 130.04150391 C-238.61530477 131.51546827 -240.3093655 133.00496988 -242 134.5 C-242.78370972 135.17313232 -242.78370972 135.17313232 -243.58325195 135.85986328 C-245.20578579 137.2743298 -245.20578579 137.2743298 -247.1875 139.5625 C-247.1875 143.64009011 -246.49668981 145.96447404 -245.1328125 149.765625 C-244.68203422 151.04820798 -244.23238345 152.33118764 -243.78369141 153.61450195 C-243.54402649 154.29598297 -243.30436157 154.97746399 -243.05743408 155.67959595 C-233.00289645 184.46786672 -225.55147668 214.37606915 -221.1875 244.5625 C-221.02668945 245.64692383 -220.86587891 246.73134766 -220.70019531 247.84863281 C-214.29901269 292.65691118 -214.55116489 345.48360018 -242.3828125 383.56640625 C-244.57449501 386.31173678 -246.83885063 388.95063992 -249.1875 391.5625 C-249.87328125 392.34238281 -250.5590625 393.12226563 -251.265625 393.92578125 C-265.63950186 409.33777144 -287.23381431 418.70432857 -308.1875 419.5625 C-308.90164063 419.6140625 -309.61578125 419.665625 -310.3515625 419.71875 C-333.91358001 420.69037959 -356.07279773 411.79777421 -373.5 396.3125 C-390.17233671 380.77933491 -397.99492124 359.64170255 -401.1875 337.5625 C-401.29964844 336.78777344 -401.41179687 336.01304687 -401.52734375 335.21484375 C-408.17297805 277.77107325 -385.89848818 217.25491477 -360.7890625 166.58203125 C-360.23161346 165.45325813 -360.23161346 165.45325813 -359.66290283 164.30168152 C-357.82969357 160.59689038 -355.97695674 156.90397229 -354.09179688 153.2253418 C-353.41754321 151.87960766 -352.7436946 150.53367047 -352.0703125 149.1875 C-351.74809723 148.57522049 -351.42588196 147.96294098 -351.09390259 147.33210754 C-349.38384294 143.92367185 -349.38384294 143.92367185 -349.89575195 140.26733398 C-356.61764298 131.39586073 -367.22016772 124.77330543 -376.05322266 118.16162109 C-378.02460403 116.68455086 -379.98742016 115.19678674 -381.94921875 113.70703125 C-415.47833081 88.44140396 -459.5858456 62.22236704 -503.40136719 67.84667969 C-522.27433332 71.1346836 -538.54203405 81.37696716 -550.1875 96.5625 C-580.38013616 139.57318207 -586.24825611 197.95832403 -586.390625 249.18359375 C-586.39769084 250.75672433 -586.40482351 252.32985462 -586.41201782 253.90298462 C-586.43163573 258.93532764 -586.43671291 263.96762236 -586.4375 269 C-586.43779457 269.86145 -586.43808914 270.72290001 -586.43839264 271.61045456 C-586.43997986 300.37008205 -585.76533474 328.90364112 -583.1875 357.5625 C-583.09039734 358.66849548 -582.99329468 359.77449097 -582.89324951 360.91400146 C-578.99521263 405.30740858 -573.77389386 449.57576348 -566.640625 493.5703125 C-566.43000931 494.86972778 -566.21939362 496.16914307 -566.00239563 497.50793457 C-564.98751552 503.73466911 -563.95388317 509.95764304 -562.89331055 516.17675781 C-562.61006927 517.86767044 -562.61006927 517.86767044 -562.32110596 519.59274292 C-561.96970146 521.68864652 -561.61057406 523.78327645 -561.24212646 525.87625122 C-559.75249405 534.82364313 -559.75249405 534.82364313 -561.1875 539.5625 C-563.5109213 540.72421065 -564.85179109 540.69063496 -567.4387207 540.69621277 C-568.33048004 540.70047775 -569.22223938 540.70474274 -570.14102173 540.70913696 C-571.12186737 540.70868378 -572.10271301 540.70823059 -573.11328125 540.70776367 C-574.65971817 540.71280159 -574.65971817 540.71280159 -576.23739624 540.71794128 C-579.65827628 540.72747011 -583.0791075 540.72939526 -586.5 540.73046875 C-588.86889669 540.7336796 -591.23779319 540.73704353 -593.60668945 540.74055481 C-598.57666484 540.74655065 -603.54662282 540.7483942 -608.51660156 540.74780273 C-614.89938353 540.747701 -621.28205454 540.76136316 -627.66481018 540.77857494 C-632.55798866 540.78966707 -637.45114006 540.79172282 -642.34432983 540.79119301 C-644.69835798 540.79237696 -647.05238675 540.79682178 -649.40640259 540.80452538 C-652.69158821 540.81427066 -655.97652959 540.81146908 -659.26171875 540.80541992 C-660.24256439 540.81103943 -661.22341003 540.81665894 -662.23397827 540.82244873 C-663.12573761 540.81825424 -664.01749695 540.81405975 -664.9362793 540.80973816 C-666.10213814 540.81055531 -666.10213814 540.81055531 -667.29154968 540.81138897 C-669.1875 540.5625 -669.1875 540.5625 -671.1875 538.5625 C-671.65110656 536.32972605 -672.00161495 534.07318797 -672.30078125 531.8125 C-672.3953511 531.10872726 -672.48992096 530.40495453 -672.58735657 529.67985535 C-672.9018053 527.30861652 -673.20179089 524.93583296 -673.5 522.5625 C-673.60632751 521.73473053 -673.71265503 520.90696106 -673.82220459 520.05410767 C-677.24293738 493.36054822 -679.91444956 466.56037588 -682.09765625 439.73828125 C-682.15803574 439.00135544 -682.21841522 438.26442963 -682.28062439 437.50517273 C-685.25931289 399.87018736 -686.57689207 362.24012762 -686.50555801 324.4928093 C-686.49989227 321.44199318 -686.4970882 318.39118267 -686.49447632 315.34036255 C-686.45715618 285.32926833 -686.08023874 255.45711683 -683.1875 225.5625 C-683.10028687 224.63886658 -683.01307373 223.71523315 -682.92321777 222.76361084 C-676.19047261 151.74327725 -664.4904933 67.71069354 -615.1875 12.5625 C-614.76114258 12.0773291 -614.33478516 11.5921582 -613.89550781 11.09228516 C-597.31668917 -7.74836656 -578.04129941 -21.53661524 -554.25 -29.75 C-553.59604248 -29.98041992 -552.94208496 -30.21083984 -552.26831055 -30.44824219 C-538.87103581 -34.80367558 -525.11695384 -35.99435138 -511.125 -35.875 C-509.99421021 -35.87093643 -509.99421021 -35.87093643 -508.84057617 -35.86679077 C-495.32873327 -35.79371245 -482.3802185 -34.47606338 -469.1875 -31.4375 C-467.94540771 -31.15664551 -467.94540771 -31.15664551 -466.67822266 -30.87011719 C-461.12207821 -29.58254159 -455.64818682 -28.08121508 -450.1875 -26.4375 C-449.36749512 -26.19161133 -448.54749023 -25.94572266 -447.70263672 -25.69238281 C-433.39203956 -21.32495186 -419.79209678 -15.63362879 -406.1875 -9.4375 C-405.36540039 -9.06898926 -404.54330078 -8.70047852 -403.69628906 -8.32080078 C-390.04989902 -2.19310612 -377.10057348 5.02631617 -364.1875 12.5625 C-363.31947754 13.0668457 -362.45145508 13.57119141 -361.55712891 14.09082031 C-343.66813631 24.52061588 -326.56393155 36.06994732 -309.66992188 48.03271484 C-305.91508446 50.68707692 -302.18626957 53.28094398 -298.1875 55.5625 C-292.58811114 50.99921853 -287.01359642 46.41651439 -281.5 41.75 C-255.63995224 20.24950052 -227.13077848 2.71750946 -197.1875 -12.4375 C-196.43210937 -12.82325195 -195.67671875 -13.20900391 -194.8984375 -13.60644531 C-171.23188367 -25.60591994 -144.64631527 -34.57205868 -118.1875 -37.4375 C-117.26066406 -37.54707031 -116.33382812 -37.65664062 -115.37890625 -37.76953125 C-71.96529459 -42.18747002 -32.28497567 -29.26052495 0 0 Z M-307.1875 213.5625 C-311.24491659 221.22407617 -314.50253762 229.08141694 -317.5625 237.1875 C-317.8001709 237.81545471 -318.0378418 238.44340942 -318.28271484 239.09039307 C-324.7131135 256.14570108 -330.23539948 273.54287845 -333.1875 291.5625 C-333.31769531 292.30886719 -333.44789063 293.05523438 -333.58203125 293.82421875 C-335.16485812 304.2286674 -335.61543314 317.0128489 -329.5 326.05859375 C-325.17341287 331.14784813 -325.17341287 331.14784813 -318.9375 332.875 C-313.25086333 332.40111361 -310.02074762 329.62750791 -306.1875 325.625 C-292.49980347 308.74828517 -290.73087311 284.23893583 -292.64990234 263.51391602 C-294.54124954 246.06716123 -299.35980925 229.67742428 -306.1875 213.5625 C-306.5175 213.5625 -306.8475 213.5625 -307.1875 213.5625 Z " fill="#003ED4" transform="translate(2413.1875,1709.4375)"/>
<path d="M0 0 C0.67315247 0.00182281 1.34630493 0.00364563 2.03985596 0.00552368 C12.85398806 0.05460761 23.17473673 0.72514174 33.6875 3.3125 C34.36280762 3.4681543 35.03811523 3.62380859 35.73388672 3.78417969 C53.46603465 7.96577823 70.30927227 16.16689451 84.6875 27.3125 C85.59113281 27.99570313 86.49476563 28.67890625 87.42578125 29.3828125 C101.24823909 40.22474036 112.55838136 53.02624955 122.6875 67.3125 C123.15220703 67.96492676 123.61691406 68.61735352 124.09570312 69.28955078 C139.1634904 90.74759748 149.78770009 114.76132785 158.6875 139.3125 C159.07212402 140.35148437 159.45674805 141.39046875 159.85302734 142.4609375 C184.76319646 210.29772547 192.66499251 284.65569102 197.375 356.3125 C197.43593842 357.237211 197.49687683 358.161922 197.55966187 359.11465454 C199.11976149 383.12591088 199.84554488 407.08089531 199.8218255 431.14311504 C199.81922596 434.62879691 199.8216601 438.11447667 199.82321167 441.60015869 C199.82501283 447.44926435 199.82268285 453.29835724 199.81787109 459.14746094 C199.81244278 465.82128546 199.81418917 472.49507934 199.8196975 479.16890311 C199.82430047 484.98807394 199.8248445 490.80723579 199.82225883 496.62640786 C199.82073347 500.06260695 199.82039467 503.49879187 199.82379532 506.93498993 C199.83326533 520.91063509 199.7138256 534.86837242 199.24169922 548.83691406 C199.20297762 549.98571926 199.16425602 551.13452446 199.12436104 552.31814194 C198.27231566 575.14286867 198.27231566 575.14286867 196.6875 578.3125 C184.07484748 578.38189597 171.46224009 578.43525826 158.84943581 578.46793652 C152.99330546 578.48361747 147.13730537 578.50490003 141.28125 578.53881836 C135.63378996 578.57132519 129.9864555 578.58933469 124.33890915 578.59713173 C122.18024085 578.60269087 120.02157971 578.61354592 117.86296463 578.62969017 C114.84810582 578.65134907 111.83377127 578.65447177 108.81884766 578.65307617 C107.46910103 578.66925491 107.46910103 578.66925491 106.09208679 578.6857605 C103.61050415 578.67326355 103.61050415 578.67326355 99.6875 578.3125 C97.44377022 574.94690533 97.48482663 574.16112619 97.7199707 570.27905273 C97.77698151 569.24643814 97.83399231 568.21382355 97.89273071 567.1499176 C98.00190323 565.4650248 98.00190323 565.4650248 98.11328125 563.74609375 C98.18010101 562.57839951 98.24692078 561.41070526 98.31576538 560.20762634 C98.46010867 557.69722122 98.60904051 555.18707661 98.76205444 552.67718506 C99.16119114 546.0896123 99.51902135 539.49975839 99.8828125 532.91015625 C99.9913279 530.96846558 99.9913279 530.96846558 100.10203552 528.98754883 C105.08521198 439.53275264 103.32826494 347.43629665 38.6875 136.3125 C38.03136719 135.49136719 37.37523437 134.67023438 36.69921875 133.82421875 C25.81731823 120.77945601 10.28657657 111.73640193 -6.3125 108.3125 C-7.405625 108.085625 -8.49875 107.85875 -9.625 107.625 C-55.43674917 103.74264838 -96.14699086 132.26476528 -129.79296875 160.16015625 C-133.16184402 163.03806365 -136.46037865 165.98709309 -139.73046875 168.9765625 C-143.21926061 172.13283713 -146.7655652 175.22187357 -150.3125 178.3125 C-149.84577881 179.67955078 -149.84577881 179.67955078 -149.36962891 181.07421875 C-137.10484609 217.17582751 -127.5300517 253.50719316 -122.3125 291.3125 C-122.16844727 292.35422363 -122.02439453 293.39594727 -121.87597656 294.46923828 C-116.34875796 336.74439701 -118.69032 386.64266614 -144.72900391 422.24951172 C-158.56559227 440.06291933 -178.28988238 453.58769571 -200.96484375 457.02734375 C-226.60668801 459.21153818 -250.93073006 455.18877592 -271.3125 438.3125 C-279.40288725 431.25267672 -286.14485764 423.79126941 -291.3125 414.3125 C-291.75851562 413.5390625 -292.20453125 412.765625 -292.6640625 411.96875 C-313.84352163 372.98815037 -304.70240056 322.06258733 -293.125 281.625 C-282.46337281 245.65007634 -267.12187883 211.77305174 -250.3125 178.3125 C-250.92714111 178.02221924 -251.54178223 177.73193848 -252.17504883 177.43286133 C-254.90634341 176.00123245 -256.77387215 174.13526549 -259 172 C-266.34599094 165.21230437 -274.28493738 159.2655027 -282.3125 153.3125 C-282.91465332 152.86374512 -283.51680664 152.41499023 -284.13720703 151.95263672 C-317.66430246 127.07769495 -360.56199347 101.08793873 -404.0625 106 C-423.93907007 109.15269126 -440.77375792 119.04418488 -452.80053711 135.22851562 C-482.5454846 176.85339664 -487.15070785 233.52319686 -488.9375 283.0625 C-488.97762207 284.17254395 -489.01774414 285.28258789 -489.05908203 286.42626953 C-491.65535826 369.78485006 -480.84778812 453.22351576 -468.42578125 535.46875 C-468.25315765 536.61690689 -468.08053406 537.76506378 -467.90267944 538.94801331 C-467.00339945 544.89314214 -466.0680043 550.83007374 -465.08349609 556.76171875 C-464.8880571 557.96163452 -464.6926181 559.16155029 -464.49125671 560.39782715 C-464.11746024 562.68539669 -463.73397648 564.9714107 -463.33943176 567.25549316 C-463.17480942 568.27139526 -463.01018707 569.28729736 -462.84057617 570.33398438 C-462.61467049 571.67221252 -462.61467049 571.67221252 -462.38420105 573.03747559 C-462.3125 575.3125 -462.3125 575.3125 -464.3125 578.3125 C-466.24527168 578.68164349 -466.24527168 578.68164349 -468.65310669 578.67326355 C-469.56458466 578.67738754 -470.47606262 578.68151154 -471.41516113 578.6857605 C-472.41785034 578.67497467 -473.42053955 578.66418884 -474.45361328 578.65307617 C-475.50729095 578.65351425 -476.56096863 578.65395233 -477.64657593 578.65440369 C-481.14217423 578.65230751 -484.63729761 578.62893703 -488.1328125 578.60546875 C-490.55133807 578.59987576 -492.96986704 578.59560426 -495.38839722 578.59260559 C-501.76386852 578.58113353 -508.13913584 578.55164592 -514.51452637 578.51849365 C-521.01616658 578.48784367 -527.51783966 578.47411111 -534.01953125 578.45898438 C-546.78394136 578.42677859 -559.54820985 578.37612775 -572.3125 578.3125 C-573.72038612 573.51388392 -574.76757632 568.9214236 -575.42578125 563.9609375 C-575.5203511 563.2504274 -575.61492096 562.5399173 -575.71235657 561.80787659 C-576.02427025 559.4353422 -576.32584269 557.06167525 -576.625 554.6875 C-576.73132751 553.85171417 -576.83765503 553.01592834 -576.94720459 552.15481567 C-581.04723555 519.69731265 -583.94789805 487.08153911 -586.0625 454.4375 C-586.12157532 453.52588104 -586.18065063 452.61426208 -586.24151611 451.67501831 C-587.6045672 430.32938547 -588.47481906 409.01539737 -588.515625 387.625 C-588.51845238 386.59046692 -588.52127975 385.55593384 -588.52419281 384.49005127 C-588.53903713 378.99580653 -588.54835465 373.50158695 -588.55273438 368.00732422 C-588.55707773 363.58699096 -588.5708295 359.16685744 -588.59375 354.74658203 C-588.71366762 331.10587805 -588.48641522 307.56593603 -586.9375 283.96875 C-586.84497829 282.55822357 -586.84497829 282.55822357 -586.75058746 281.11920166 C-582.40456123 216.4946105 -573.01940792 148.71781564 -543.3125 90.3125 C-542.89645508 89.49265625 -542.48041016 88.6728125 -542.05175781 87.828125 C-534.5317727 73.22945446 -525.55205484 59.33916253 -514.25 47.37109375 C-512.54225114 45.55661058 -510.9904548 43.6956053 -509.4375 41.75 C-505.33500521 36.93550198 -500.29023688 33.17442204 -495.3125 29.3125 C-494.44496094 28.62929687 -493.57742188 27.94609375 -492.68359375 27.2421875 C-463.27199501 4.88761916 -425.71397142 -1.11398639 -389.6875 3.5 C-340.08846412 10.46552253 -294.53153107 33.34841213 -252.3125 59.3125 C-251.42208008 59.85648438 -250.53166016 60.40046875 -249.61425781 60.9609375 C-235.92962583 69.34297403 -222.50220379 78.25894573 -209.75 88.01171875 C-208.780625 88.75035156 -207.81125 89.48898437 -206.8125 90.25 C-206.0184375 90.87777344 -205.224375 91.50554687 -204.40625 92.15234375 C-202.42102994 93.52738368 -202.42102994 93.52738368 -200.3671875 93.03588867 C-196.90516732 91.81702391 -194.47918476 89.12858593 -191.8125 86.6875 C-182.75582171 78.62622212 -173.10470358 71.44892439 -163.3125 64.3125 C-162.58272949 63.77737793 -161.85295898 63.24225586 -161.10107422 62.69091797 C-114.8597405 28.89216071 -58.55641783 -0.25388921 0 0 Z M-206.3125 251.3125 C-230.63795105 302.8851285 -230.63795105 302.8851285 -231.3125 358.3125 C-229.07518423 363.25900177 -226.122852 367.62765237 -221.3125 370.3125 C-217.11367387 371.06966537 -214.89043189 371.26577217 -211.23046875 369.0546875 C-197.86078243 358.06240238 -192.94193834 340.95029189 -191.3125 324.3125 C-189.55742198 299.42600242 -194.75195531 273.88215967 -205.3125 251.3125 C-205.6425 251.3125 -205.9725 251.3125 -206.3125 251.3125 Z " fill="#003ED4" transform="translate(973.3125,1671.6875)"/>
<path d="M0 0 C1.20532379 0.00648056 1.20532379 0.00648056 2.43499756 0.01309204 C15.03980091 0.09227618 27.3342853 0.67820882 39.6875 3.375 C40.46577148 3.54128906 41.24404297 3.70757813 42.04589844 3.87890625 C85.96383226 13.59446719 124.5349769 39.6299063 151.6875 75.375 C152.30455811 76.17744141 152.30455811 76.17744141 152.93408203 76.99609375 C196.40278288 133.73215612 219.07074712 203.73561482 235.6875 272.375 C235.9827356 273.59361725 235.9827356 273.59361725 236.28393555 274.83685303 C257.08255425 361.07042513 268.31204342 449.35746724 280.11113739 541.43719482 C280.37290339 543.4836093 280.63565238 545.52989589 280.89849854 547.57617188 C281.37825688 551.32366342 281.8524206 555.07181145 282.32421875 558.8203125 C282.53426292 560.45965256 282.53426292 560.45965256 282.74855042 562.1321106 C284.03131308 572.44490907 284.03131308 572.44490907 283.6875 576.375 C281.04169068 579.02080932 279.09620532 578.62490636 275.49551392 578.65716553 C274.19255875 578.6534494 274.19255875 578.6534494 272.86328125 578.6496582 C271.94936615 578.65476913 271.03545105 578.65988007 270.09384155 578.66514587 C267.06249507 578.67908536 264.03137479 578.67808199 261 578.67578125 C258.90014562 578.67966548 256.80029202 578.68399958 254.70043945 578.68876648 C250.29538427 578.69623785 245.89040921 578.69593055 241.48535156 578.69067383 C235.82889825 578.68487474 230.1727719 578.70181648 224.51637268 578.7250185 C220.17905751 578.73971974 215.84182176 578.74063253 211.50448608 578.73750877 C209.41839957 578.7380237 207.33230881 578.74329331 205.24624634 578.75332069 C202.3345182 578.76559946 199.42343585 578.75894541 196.51171875 578.74731445 C195.64308197 578.75495819 194.77444519 578.76260193 193.87948608 578.77047729 C191.4831543 578.7492218 191.4831543 578.7492218 187.6875 578.375 C185.65576923 575.32740385 185.40042382 574.4260134 185.17260742 570.94677734 C185.10860245 570.04211731 185.04459747 569.13745728 184.97865295 568.2053833 C184.91737717 567.21721619 184.85610138 566.22904907 184.79296875 565.2109375 C184.64343911 563.06005531 184.49386002 560.90917656 184.34423828 558.75830078 C184.26820374 557.61782288 184.19216919 556.47734497 184.11383057 555.30230713 C180.62048856 503.34319702 174.72184179 451.64670112 166.75 400.1875 C166.52308975 398.7066391 166.52308975 398.7066391 166.29159546 397.19586182 C163.30250253 377.7987511 159.43816592 358.66413904 155.6875 339.375 C61.9675 339.045 -31.7525 338.715 -128.3125 338.375 C-128.6425 342.665 -128.9725 346.955 -129.3125 351.375 C-129.63936578 354.33983722 -129.98140091 357.29294372 -130.36328125 360.25 C-130.56768504 361.88674213 -130.77160178 363.52354513 -130.97509766 365.16040039 C-131.08106262 366.00748566 -131.18702759 366.85457092 -131.29620361 367.72732544 C-135.27853194 399.79552885 -138.02623794 431.93597852 -140 464.1875 C-140.06084778 465.18105499 -140.12169556 466.17460999 -140.18438721 467.19827271 C-140.59117496 473.92230498 -140.96537336 480.6476295 -141.3125 487.375 C-141.36062836 488.30015411 -141.40875671 489.22530823 -141.45834351 490.17849731 C-142.08920654 502.6540748 -142.41013714 515.12384052 -142.55859375 527.61328125 C-142.57122914 528.65850291 -142.57122914 528.65850291 -142.5841198 529.72484016 C-142.66135503 536.1909053 -142.73285737 542.65700905 -142.78930664 549.12329102 C-142.82103539 552.71073758 -142.86220782 556.29797077 -142.90950203 559.88524437 C-142.93314443 561.88772442 -142.94622023 563.8903203 -142.95909119 565.89289856 C-142.97573318 567.09653549 -142.99237518 568.30017242 -143.00952148 569.5402832 C-143.02498268 571.12713676 -143.02498268 571.12713676 -143.04075623 572.74604797 C-143.3125 575.375 -143.3125 575.375 -145.3125 578.375 C-148.3216888 578.67168246 -151.12520803 578.77381483 -154.13671875 578.74731445 C-155.05063385 578.75096512 -155.96454895 578.75461578 -156.90615845 578.75837708 C-159.93762596 578.76650612 -162.96856288 578.75285291 -166 578.73828125 C-168.09985351 578.73776293 -170.19970752 578.73827955 -172.29956055 578.73979187 C-176.70466334 578.73970204 -181.10958352 578.7292508 -185.51464844 578.71118164 C-191.17105275 578.68849417 -196.82719003 578.68794924 -202.48362732 578.69469929 C-206.82094714 578.69803524 -211.1582057 578.69141623 -215.49551392 578.68157005 C-217.58159057 578.67771131 -219.66767404 578.67657261 -221.75375366 578.6781559 C-224.66539577 578.67852532 -227.57669106 578.66594083 -230.48828125 578.6496582 C-231.35691803 578.65213562 -232.22555481 578.65461304 -233.12051392 578.65716553 C-239.08376014 578.60373986 -239.08376014 578.60373986 -241.3125 576.375 C-241.53417969 573.72021484 -241.53417969 573.72021484 -241.484375 570.2109375 C-241.47637878 569.55491547 -241.46838257 568.89889343 -241.46014404 568.22299194 C-241.42553388 565.93979651 -241.37119309 563.65770087 -241.3125 561.375 C-241.29195557 560.53859985 -241.27141113 559.70219971 -241.25024414 558.8404541 C-238.54352794 454.20805301 -228.39970149 348.05000422 -186.3125 189.375 C-185.94801758 188.26237793 -185.58353516 187.14975586 -185.20800781 186.00341797 C-179.96968064 170.13817553 -173.99278879 154.68648134 -167.3125 139.375 C-166.90918457 138.44204102 -166.50586914 137.50908203 -166.09033203 136.54785156 C-153.36706913 107.24485912 -137.43316182 79.47937436 -116.3125 55.375 C-115.80235352 54.79186035 -115.29220703 54.2087207 -114.76660156 53.60791016 C-96.04750916 32.40203915 -73.66778319 15.67893929 -46.75 6.4375 C-45.58452637 6.03180786 -45.58452637 6.03180786 -44.39550781 5.61791992 C-29.92838169 0.97366037 -15.09545191 -0.15524794 0 0 Z M-57.3125 125.375 C-83.72834447 157.71928591 -97.19872693 198.77135433 -108.3125 238.375 C-108.58642578 239.34953125 -108.86035156 240.3240625 -109.14257812 241.328125 C-109.87750567 243.96575971 -110.59941612 246.60638466 -111.3125 249.25 C-111.52036133 250.01038574 -111.72822266 250.77077148 -111.94238281 251.55419922 C-112.94578089 255.37888557 -113.3125 258.3568789 -113.3125 262.375 C-30.4825 262.375 52.3475 262.375 137.6875 262.375 C120.72771829 205.84239432 98.03848836 131.57074351 42.4375 100.5625 C5.17869059 82.29837774 -31.16904903 95.48186103 -57.3125 125.375 Z " fill="#003ED4" transform="translate(1435.3125,1671.625)"/>
<path d="M0 0 C0.6922467 -0.00067474 1.38449341 -0.00134949 2.09771729 -0.00204468 C12.72671961 0.01440603 22.72290438 0.58725886 33.0625 3.25 C34.09189697 3.49943359 34.09189697 3.49943359 35.14208984 3.75390625 C46.23099901 6.47263994 56.09148113 10.72992691 66.0625 16.25 C67.0215625 16.77851562 67.980625 17.30703125 68.96875 17.8515625 C100.42522667 36.00699811 121.55940877 67.5941831 130.8515625 102.25 C135.14574505 119.42673019 137.29760938 136.17838676 137.3125 153.875 C137.31317474 154.60031921 137.31384949 155.32563843 137.31454468 156.07293701 C137.29511938 169.31154771 136.3599651 182.19300617 134.0625 195.25 C133.90152832 196.1786084 133.74055664 197.1072168 133.57470703 198.06396484 C129.36804296 221.42489185 121.57377273 243.99278839 111.0625 265.25 C110.67481445 266.03777832 110.28712891 266.82555664 109.88769531 267.63720703 C100.73685847 286.04005705 89.75976784 303.10308019 77.0625 319.25 C76.28132813 320.24515625 75.50015625 321.2403125 74.6953125 322.265625 C62.15022863 337.8911743 48.02457264 353.07918888 32.0625 365.25 C31.50481934 365.67877441 30.94713867 366.10754883 30.37255859 366.54931641 C6.71275859 384.65873162 -19.64301669 398.1264683 -48.9375 404.25 C-49.9790625 404.47558594 -51.020625 404.70117188 -52.09375 404.93359375 C-71.88960612 408.48606793 -94.8709448 408.04892666 -113.9375 401.25 C-105.38213831 415.48369909 -96.16864605 429.05261805 -84.80859375 441.22265625 C-82.9375 443.25 -82.9375 443.25 -80.5625 446.3125 C-66.65896334 461.8712196 -46.83872147 472.66144692 -26.9375 478.25 C-25.88949219 478.54648438 -24.84148438 478.84296875 -23.76171875 479.1484375 C14.5836229 488.60601871 55.41423117 482.0098901 92.0625 469.25 C92.97338379 468.94143066 93.88426758 468.63286133 94.82275391 468.31494141 C117.76646822 460.49039212 140.32522693 449.80293135 161.25756836 437.54882812 C164.03893057 435.98221166 165.6948392 435.22137068 168.921875 435.47265625 C171.0625 436.25 171.0625 436.25 172.0625 437.25 C172.23749928 439.96508438 172.34727746 442.65622088 172.4140625 445.37475586 C172.43830292 446.22690674 172.46254333 447.07905762 172.48751831 447.95703125 C172.69937539 455.8455424 172.82381011 463.7358175 172.92181396 471.62648678 C172.98878434 476.9282206 173.08427209 482.22596245 173.24902344 487.52563477 C173.40761224 492.6495271 173.49166009 497.76977911 173.52459717 502.89596748 C173.54968831 504.84477249 173.60080021 506.79343115 173.67901611 508.74082756 C174.2473843 523.5669725 174.2473843 523.5669725 170.6064682 528.03800011 C167.07132569 531.16685665 163.14574122 533.37498975 158.89224434 535.38144684 C156.34386435 536.59112594 153.9426937 538.03046752 151.515625 539.46484375 C149.78798829 540.38515828 148.05343885 541.29260372 146.3125 542.1875 C145.35134277 542.6834668 144.39018555 543.17943359 143.39990234 543.69042969 C94.24145078 568.52556604 34.28720924 584.23866882 -20.9375 574.25 C-21.99372559 574.07259277 -21.99372559 574.07259277 -23.07128906 573.89160156 C-62.61066683 567.14432607 -99.41099766 547.85276294 -128.57421875 520.4609375 C-130.58297922 518.58166737 -132.63415713 516.81753598 -134.75 515.0625 C-146.09393219 505.13077162 -155.57103713 493.35758285 -164.46630859 481.24755859 C-165.81248204 479.41974726 -167.17826475 477.60883314 -168.55078125 475.80078125 C-179.50524005 461.16674783 -188.16674265 444.76083151 -195.9375 428.25 C-196.42379883 427.22156982 -196.42379883 427.22156982 -196.91992188 426.17236328 C-218.0137815 381.17829722 -228.18558157 331.82760036 -228.125 282.25 C-228.12439575 281.33759552 -228.1237915 280.42519104 -228.12316895 279.48513794 C-228.09945374 266.30396899 -227.85474144 253.31203141 -225.9375 240.25 C-225.81391113 239.34749512 -225.69032227 238.44499023 -225.56298828 237.51513672 C-221.01895159 204.86967551 -211.44533981 172.85737191 -196.9375 143.25 C-196.49567383 142.34185547 -196.05384766 141.43371094 -195.59863281 140.49804688 C-186.06925289 121.09445213 -174.61582369 103.00161794 -160.9375 86.25 C-160.49792969 85.70891602 -160.05835937 85.16783203 -159.60546875 84.61035156 C-148.38688862 70.88734192 -136.00998012 58.05929632 -121.9375 47.25 C-120.92429687 46.44304687 -119.91109375 45.63609375 -118.8671875 44.8046875 C-84.91258648 17.90330804 -43.69788621 0.03825526 0 0 Z M-75.9375 139.25 C-76.73414062 139.99636719 -77.53078125 140.74273438 -78.3515625 141.51171875 C-113.0345711 174.66279234 -130.5969101 222.5628922 -132.04711914 269.82226562 C-132.1060274 273.59042226 -132.1230654 277.35640518 -132.125 281.125 C-132.13724609 282.40375 -132.14949219 283.6825 -132.16210938 285 C-132.16404297 286.23492188 -132.16597656 287.46984375 -132.16796875 288.7421875 C-132.17207764 289.84933105 -132.17618652 290.95647461 -132.18041992 292.09716797 C-131.91928387 295.48642518 -131.28619423 298.13128532 -129.9375 301.25 C-112.04512587 312.12761553 -87.13395703 312.89564892 -67.2590332 308.08227539 C-48.39075364 303.05368597 -32.10371456 292.4503363 -17.9375 279.25 C-16.99390625 278.37214844 -16.99390625 278.37214844 -16.03125 277.4765625 C14.71881897 248.52825538 40.77632298 206.12888908 42.265625 162.83984375 C42.57903344 144.38028401 39.86509843 127.40333129 27.0625 113.25 C17.61810549 104.83650771 6.31568162 101.42170719 -6.22265625 101.87890625 C-33.897726 104.64350312 -56.53107648 120.24233861 -75.9375 139.25 Z " fill="#003ED4" transform="translate(3622.9375,1671.75)"/>
<path d="M0 0 C0.66405609 -0.00382555 1.32811219 -0.00765109 2.01229119 -0.01159257 C4.24885375 -0.02195219 6.48516095 -0.01792455 8.72174072 -0.01396179 C10.32178994 -0.01830744 11.92183708 -0.02349009 13.5218811 -0.02944946 C17.88262818 -0.04288722 22.24328879 -0.04341136 26.60405254 -0.04088616 C30.25551876 -0.03981666 33.90696748 -0.04470087 37.55842996 -0.04949158 C46.19588794 -0.06060965 54.83330247 -0.06101554 63.47076416 -0.05497742 C72.33294759 -0.04897603 81.1949707 -0.06114482 90.05712676 -0.08254749 C97.69057902 -0.1002941 105.32398094 -0.1061433 112.95745301 -0.10290974 C117.50437146 -0.10111259 122.05117636 -0.10357092 126.59807587 -0.11762428 C191.45009459 -0.30068325 246.77560628 18.00944284 293.60552979 64.26069641 C323.32963005 94.30688445 341.06745561 134.12835367 348.60552979 175.26069641 C348.73830322 175.9648468 348.87107666 176.66899719 349.00787354 177.39448547 C358.31095663 229.21474891 343.279958 285.33295558 313.99273682 328.289505 C310.78914778 332.84173625 307.31084771 337.10482258 303.60552979 341.26069641 C302.84369385 342.11921204 302.08185791 342.97772766 301.29693604 343.86225891 C299.77888292 345.5569489 298.25308597 347.2447411 296.71881104 348.92475891 C294.82110661 351.02240632 292.99203048 353.16173423 291.16802979 355.32319641 C264.94290382 385.17583413 225.08586465 404.55166946 186.85552979 413.07319641 C185.98235107 413.26824768 185.10917236 413.46329895 184.20953369 413.66426086 C169.76957726 416.67912375 155.46178615 417.55722746 140.75787354 417.45600891 C139.1230741 417.45226467 137.48827236 417.44942441 135.85346985 417.44743347 C131.61379463 417.4399078 127.37426315 417.42035889 123.13464355 417.39802551 C118.78316185 417.37732418 114.43165623 417.3683806 110.08013916 417.35835266 C101.58853777 417.33709888 93.09705181 417.30310234 84.60552979 417.26069641 C84.60829516 418.07222074 84.61106054 418.88374506 84.61390972 419.71986103 C84.68010866 439.44894637 84.72978066 459.17801261 84.7609663 478.90718555 C84.77644757 488.44799597 84.79756109 497.98873234 84.83184814 507.52949524 C84.86171201 515.84340532 84.88109562 524.15726179 84.88779527 532.47122401 C84.89171265 536.87506698 84.90094505 541.27875654 84.92271996 545.68255043 C84.9430376 549.8250727 84.94937321 553.96737793 84.94485283 558.1099453 C84.94568015 559.63256381 84.95167396 561.15518937 84.96314621 562.67776489 C84.97801703 564.75265962 84.97450399 566.82672903 84.96629333 568.90164185 C84.96905871 570.0640228 84.97182409 571.22640375 84.97467327 572.42400837 C84.60552979 575.26069641 84.60552979 575.26069641 83.31348991 577.13474846 C80.28776365 579.12941463 76.72466542 578.66614039 73.21856689 578.63301086 C72.36302719 578.63666153 71.50748749 578.64031219 70.62602234 578.64407349 C67.79477157 578.65218741 64.96409156 578.63856305 62.13287354 578.62397766 C60.16897075 578.6234592 58.20506744 578.62397635 56.24116516 578.62548828 C52.12450416 578.62539852 48.00803886 578.61496085 43.89141846 578.59687805 C38.60608943 578.57417589 33.3210461 578.57364909 28.03568172 578.5803957 C23.98059027 578.58373161 19.92556435 578.57711297 15.87048531 578.56726646 C13.92117213 578.56340877 11.97185167 578.5622686 10.02253532 578.56385231 C7.30258071 578.56422179 4.58299719 578.55163644 1.86309814 578.53535461 C0.64665619 578.53907074 0.64665619 578.53907074 -0.59436035 578.54286194 C-6.16572767 578.48943896 -6.16572767 578.48943896 -8.39447021 576.26069641 C-8.59224318 573.16304748 -8.66200939 570.15473056 -8.6461525 567.05581665 C-8.65051282 565.59956416 -8.65051282 565.59956416 -8.65496123 564.11389244 C-8.66232672 560.82332902 -8.65528756 557.53294828 -8.6484375 554.24238586 C-8.65073935 551.87444875 -8.653914 549.50651235 -8.65789199 547.13857746 C-8.66452895 541.97094421 -8.66488366 536.80334888 -8.65979767 531.63571548 C-8.65225525 523.9514661 -8.6560884 516.26725214 -8.66221428 508.58300301 C-8.67276513 494.86163757 -8.6718253 481.1402907 -8.66605646 467.41892347 C-8.66103272 455.411396 -8.65970849 443.40387535 -8.66210175 431.39634705 C-8.66225452 430.60101172 -8.66240729 429.8056764 -8.66256469 428.98624001 C-8.66318732 425.75801736 -8.66382412 422.52979471 -8.66448421 419.30157207 C-8.67060734 388.99531335 -8.66504716 358.68906649 -8.65429042 328.38280959 C-8.64479864 301.43552332 -8.64564787 274.48825595 -8.6552124 247.54096985 C-8.66591302 217.29145995 -8.67017316 187.04196053 -8.66398787 156.792449 C-8.6633464 153.56998126 -8.66272073 150.34751352 -8.66210175 147.12504578 C-8.66194359 146.33154525 -8.66178544 145.53804472 -8.66162249 144.72049872 C-8.65934397 132.71815818 -8.66201474 120.71582521 -8.66706085 108.71348572 C-8.67276764 95.0713866 -8.67137485 81.42930903 -8.66049936 67.78721261 C-8.65460833 60.14466669 -8.65426991 52.50216739 -8.66179171 44.85962263 C-8.66677826 39.1670086 -8.6614058 33.4744433 -8.65184256 27.78183687 C-8.64959358 25.46828357 -8.65077795 23.1547241 -8.65559414 20.84117472 C-8.66160509 17.7158836 -8.65551022 14.59085326 -8.6461525 11.46557617 C-8.65083483 10.55050761 -8.65551716 9.63543905 -8.66034138 8.69264114 C-8.61439136 1.10535818 -7.44769509 0.01280795 0 0 Z M84.60552979 96.26069641 C84.60552979 170.18069641 84.60552979 244.10069641 84.60552979 320.26069641 C163.20166474 323.62992618 163.20166474 323.62992618 224.35552979 287.94819641 C236.90022732 275.25085528 245.25793355 259.81135498 250.98052979 243.01069641 C251.21924805 242.31500549 251.45796631 241.61931458 251.70391846 240.90254211 C260.74745928 212.83649371 256.56877449 180.90455121 243.46490479 154.88569641 C239.07632373 146.59088111 233.9700495 139.18709186 227.60552979 132.26069641 C227.15838623 131.77117493 226.71124268 131.28165344 226.25054932 130.77729797 C208.19983167 111.23319792 185.59584294 100.59241527 159.60552979 96.26069641 C134.85552979 96.26069641 110.10552979 96.26069641 84.60552979 96.26069641 Z " fill="#003ED4" transform="translate(3019.3944702148438,1671.7393035888672)"/>
<path d="M0 0 C1.28527792 -0.01242204 2.57055585 -0.02484408 3.89478159 -0.03764254 C5.31903101 -0.02614159 6.74327668 -0.01416937 8.16751862 -0.0017767 C9.68208071 -0.00682135 11.19663685 -0.01404956 12.71117926 -0.02327484 C16.87480716 -0.04223595 21.03784921 -0.02994194 25.20146251 -0.0125519 C29.69097823 0.00079862 34.18040691 -0.01460665 38.66991425 -0.02637386 C47.4655121 -0.04477215 56.26088811 -0.03622356 65.0564791 -0.01828564 C72.20354953 -0.00427133 79.35055966 -0.00036432 86.49764252 -0.00372791 C87.51407903 -0.00420536 88.53051554 -0.0046828 89.57775316 -0.00517471 C91.64249585 -0.00620102 93.70723852 -0.00725637 95.77198118 -0.00834047 C114.03770119 -0.01691196 132.30331396 -0.00021796 150.56900787 0.02948856 C168.30115006 0.05832704 186.03313773 0.06541008 203.76529694 0.04999638 C223.06521081 0.03324292 242.36505128 0.02919127 261.66496706 0.04670674 C263.7221988 0.04855116 265.77943054 0.05038589 267.83666229 0.05221081 C269.35503725 0.05357894 269.35503725 0.05357894 270.90408644 0.05497472 C278.04421178 0.06058544 285.18430134 0.05726795 292.32442474 0.05066586 C301.0235191 0.04294176 309.72246125 0.04965189 318.42152488 0.0748409 C322.86163933 0.08735743 327.30151655 0.09345646 331.74164009 0.08229923 C335.80417452 0.07228342 339.86623512 0.08065922 343.92871171 0.10388041 C345.40036969 0.10905424 346.87206988 0.10745175 348.34370965 0.09848576 C350.34055672 0.08732959 352.33750034 0.10309086 354.33430481 0.12025452 C355.9996797 0.12204174 355.9996797 0.12204174 357.69869852 0.12386507 C361.35606947 0.74304328 363.02548256 2.07414991 365.6671524 4.62641239 C367.18123017 7.65456792 366.82321861 10.79554271 366.82828522 14.11786747 C366.83325012 14.8904137 366.83821503 15.66295994 366.84333038 16.45891666 C366.85796586 19.02126798 366.86475672 21.58355735 366.8702774 24.14594364 C366.87602825 25.92472683 366.881786 27.70350999 366.88755035 29.48229313 C366.89806465 33.21563856 366.90390433 36.94896243 366.90738678 40.68232059 C366.91286872 45.46409376 366.93688845 50.24558177 366.96535873 55.02726555 C366.98399236 58.70329969 366.98919113 62.3792653 366.99072266 66.05534267 C366.9937487 67.81798389 367.0017756 69.58062391 367.01490784 71.3432188 C367.03198167 73.8112902 367.03008487 76.27866706 367.02359772 78.74677372 C367.0328125 79.47371433 367.04202728 80.20065495 367.0515213 80.94962406 C367.01538872 85.34273877 366.37180994 88.13316679 363.6671524 91.62641239 C361.05552417 92.93222651 359.15122843 92.74934116 356.22559357 92.74666691 C355.07010513 92.74804157 353.9146167 92.74941624 352.72411346 92.75083256 C351.45025284 92.74723728 350.17639221 92.74364201 348.86392975 92.73993778 C347.51389824 92.73965582 346.16386657 92.73981382 344.81383514 92.74038029 C341.1425697 92.74066791 337.47133674 92.73477682 333.80007887 92.72780633 C329.96570213 92.72156699 326.1313247 92.72096853 322.29694366 92.71978092 C315.03318817 92.71666932 307.76944768 92.70845824 300.5056988 92.69843143 C292.23737166 92.68726498 283.96904381 92.6817585 275.70071101 92.676736 C258.68951612 92.66627549 241.67833585 92.64867935 224.6671524 92.62641239 C224.66853509 93.46226588 224.66853509 93.46226588 224.66994572 94.3150053 C224.81360494 183.21503728 224.68334268 272.11522371 224.37801456 393.83481693 C224.36825576 397.49628542 224.35850692 401.15775393 224.34876251 404.81922245 C224.34634502 405.72527467 224.34392752 406.6313269 224.34143677 407.56483525 C224.30475969 421.35994979 224.27369935 435.15506953 224.24555206 448.9502039 C224.21305161 464.86578718 224.17340417 480.78133464 224.12446266 496.69687623 C224.09917184 504.98082038 224.07713872 513.26474373 224.06379128 521.54871655 C224.05258074 528.50411071 224.03478269 535.45944624 224.0079791 542.41479859 C223.99458224 545.94464859 223.98444964 549.47443022 223.98293984 553.00430703 C223.98122688 556.81083854 223.96425309 560.6172109 223.94562531 564.42369938 C223.94756002 565.54262579 223.94949474 566.6615522 223.95148808 567.81438547 C223.94028987 569.3293349 223.94028987 569.3293349 223.92886543 570.87488937 C223.92544795 572.18860001 223.92544795 572.18860001 223.92196143 573.52885026 C223.6671524 575.62641239 223.6671524 575.62641239 221.6671524 577.62641239 C218.87637605 577.81980122 216.18521948 577.88863847 213.3937149 577.86933231 C212.11062439 577.87217983 212.11062439 577.87217983 210.80161285 577.87508488 C207.96503375 577.87879926 205.12870888 577.86807903 202.2921524 577.85688114 C200.32682068 577.85568959 198.36148838 577.85523613 196.39615631 577.85549259 C192.27356155 577.85392658 188.15105348 577.84562796 184.02848053 577.83222294 C178.73533543 577.81523295 173.44228569 577.81140854 168.14911652 577.81216812 C164.08975051 577.81189661 160.03040549 577.80641844 155.97104645 577.79916668 C154.01894032 577.79597712 152.0668318 577.79401194 150.11472321 577.79327297 C147.38997063 577.79111245 144.66532057 577.78237443 141.9405899 577.77167606 C140.72179138 577.77235584 140.72179138 577.77235584 139.47837067 577.77304935 C133.89610613 577.74088925 133.89610613 577.74088925 131.6671524 576.62641239 C130.89245316 504.71335622 130.56666388 432.80523053 130.56949615 360.88813114 C130.56952403 359.9091819 130.5695519 358.93023265 130.56958061 357.92161828 C130.5705144 332.85804356 130.58106547 307.79447603 130.59512579 282.73090565 C130.60318438 268.20103912 130.60855898 253.67117325 130.61222076 239.14130497 C130.61248349 238.10181399 130.61274621 237.06232302 130.6130169 235.99133231 C130.61432296 230.77088005 130.61558642 225.55042777 130.6168288 220.32997549 C130.62701326 177.76211763 130.64445568 135.19426531 130.6671524 92.62641239 C129.94139794 92.62733418 129.21564348 92.62825598 128.46789646 92.6292057 C110.83413779 92.65126003 93.2003826 92.6678235 75.5666132 92.67822456 C67.03916746 92.68338772 58.51173092 92.6904308 49.98429108 92.70185184 C42.55448985 92.71179807 35.12469528 92.71826567 27.69488758 92.72050089 C23.75841921 92.7218081 19.82196987 92.7248946 15.88550758 92.73214245 C12.18461913 92.7389017 8.48375766 92.74102955 4.78286362 92.73952007 C2.76844439 92.73992877 0.75402813 92.74532446 -1.26038361 92.75083256 C-2.44815399 92.74945789 -3.63592438 92.74808323 -4.85968781 92.74666691 C-5.8985485 92.7475887 -6.93740919 92.74851049 -8.00775051 92.74946022 C-10.3328476 92.62641239 -10.3328476 92.62641239 -11.3328476 91.62641239 C-11.45457993 88.9754331 -11.5114653 86.35004394 -11.52571869 83.69770145 C-11.53798492 82.45131901 -11.53798492 82.45131901 -11.55049896 81.17975712 C-11.575405 78.41719132 -11.59188346 75.65467712 -11.6062851 72.89203739 C-11.61160877 71.95039486 -11.61693245 71.00875233 -11.62241745 70.03857517 C-11.6491735 65.05321408 -11.66853926 60.06787822 -11.68294525 55.08246708 C-11.69958624 49.92944388 -11.74435232 44.77706112 -11.7953167 39.62427998 C-11.82895964 35.66601666 -11.84051955 31.70790572 -11.84617233 27.74951267 C-11.85289455 25.85007434 -11.86814177 23.95064637 -11.89206314 22.05134678 C-11.92365066 19.39126719 -11.92376125 16.73291903 -11.91634369 14.07270145 C-11.93274902 13.28808537 -11.94915436 12.50346928 -11.96605682 11.69507694 C-11.92261549 7.88780716 -11.58098018 5.93939485 -9.19065046 2.92434841 C-5.79385329 0.19301146 -4.30358228 0.00104538 0 0 Z " fill="#003ED4" transform="translate(3827.332847595215,1672.3735876083374)"/>
<path d="M0 0 C8.37274321 0.3374292 15.96676876 3.02335162 23.84375 5.65625 C25.2631615 6.1239354 26.6828027 6.59092418 28.10266113 7.05725098 C31.05950735 8.03035214 34.01437359 9.00916528 36.96777344 9.99267578 C40.75932224 11.25519415 44.55423855 12.50719303 48.35048676 13.75550079 C51.27318976 14.71705585 54.19475895 15.68201391 57.11592102 16.64823914 C58.5160249 17.11132361 59.91632372 17.5738191 61.31681824 18.03572083 C63.26369549 18.67884396 65.20903819 19.32660701 67.15429688 19.97460938 C68.26188354 20.3424353 69.36947021 20.71026123 70.51062012 21.0892334 C73 22 73 22 74 23 C74.49586436 30.24657915 72.93365475 36.87442026 71.4375 43.9375 C63.34513701 83.56750538 58.73971623 123.93920266 56.8125 164.3125 C56.76934662 165.21361511 56.72619324 166.11473022 56.68173218 167.04315186 C53.88466859 226.9916032 56.8104086 293.16836795 86 347 C86.31549805 347.60005859 86.63099609 348.20011719 86.95605469 348.81835938 C102.17503442 377.74230634 126.29533926 397.95724982 157.27050781 408.05249023 C202.49719963 422.00634105 250.47896157 410.50701281 294 396 C297.625 395.875 297.625 395.875 301 396 C305.80092996 400.80092996 303.31131726 419.92264775 303.421875 426.875 C303.44266491 428.12526474 303.44266491 428.12526474 303.46387482 429.40078735 C303.53651172 433.79496143 303.60407894 438.18917946 303.66748047 442.58349609 C303.7339106 447.11415372 303.81853642 451.64428837 303.9070549 456.17456055 C303.97207861 459.67282692 304.02358583 463.17119861 304.07138824 466.66973877 C304.096606 468.34117085 304.12695279 470.01253382 304.16255951 471.68377686 C304.21093643 474.01188991 304.24013688 476.33949909 304.26464844 478.66796875 C304.29249672 479.69812859 304.29249672 479.69812859 304.32090759 480.74909973 C304.33446507 483.78009561 304.15277359 485.73529891 302.62338257 488.38517761 C300.59011613 490.40772253 298.81587103 491.14967929 296.1171875 492.11328125 C295.12783203 492.47067383 294.13847656 492.82806641 293.11914062 493.19628906 C291.51329102 493.74881348 291.51329102 493.74881348 289.875 494.3125 C288.76060547 494.70276367 287.64621094 495.09302734 286.49804688 495.49511719 C221.0068078 518.04339371 144.86983736 525.54778674 80.74853516 494.56958008 C68.65054049 488.45818174 57.24566847 480.87363982 47 472 C46.20722656 471.31679687 45.41445312 470.63359375 44.59765625 469.9296875 C42.0238745 467.66085619 39.50503125 465.34450019 37 463 C36.06285156 462.12859375 35.12570313 461.2571875 34.16015625 460.359375 C20.59926203 447.45686388 10.26084421 432.17849625 1 416 C0.6086084 415.32565918 0.2172168 414.65131836 -0.18603516 413.95654297 C-27.37823466 366.69749662 -36.96484499 309.73264484 -41 256 C-41.09063721 254.88753906 -41.18127441 253.77507812 -41.2746582 252.62890625 C-42.27499082 238.95861745 -42.33327077 225.25161701 -42.53222656 211.5512085 C-42.58319339 208.09789792 -42.6384798 204.64465647 -42.69335938 201.19140625 C-42.79947019 194.4609932 -42.90140415 187.73052712 -43 181 C-43.8470752 181.52601807 -44.69415039 182.05203613 -45.56689453 182.59399414 C-72.20785666 199.09533899 -100.54607183 210.36983917 -131.375 216.4375 C-132.20016113 216.60161377 -133.02532227 216.76572754 -133.87548828 216.93481445 C-139.49560617 217.9573303 -145.29771304 218.69797518 -151 218 C-153.67433 215.32567 -153.63235934 213.39714851 -154.23681641 209.67358398 C-154.34439774 209.02450577 -154.45197906 208.37542755 -154.56282043 207.7066803 C-154.91725061 205.55439865 -155.25970709 203.40040577 -155.6015625 201.24609375 C-155.84481771 199.74585345 -156.08858942 198.24569682 -156.33285522 196.74562073 C-156.84402102 193.59482465 -157.34936343 190.44316418 -157.85058594 187.29077148 C-158.49026993 183.27005965 -159.14342296 179.25168152 -159.80095863 175.23385525 C-160.30723236 172.1315469 -160.80657629 169.02815312 -161.30387497 165.92439461 C-161.54185803 164.44385294 -161.78185473 162.96363339 -162.02397537 161.48376274 C-164.60750607 145.63942764 -164.60750607 145.63942764 -164 139 C-161.24868368 137.16578912 -159.98711221 136.62627264 -156.88671875 135.9921875 C-156.06228271 135.81461914 -155.23784668 135.63705078 -154.38842773 135.45410156 C-153.49712158 135.26299805 -152.60581543 135.07189453 -151.6875 134.875 C-112.3055858 125.91511163 -76.01965091 105.95795637 -47 78 C-45.948125 77.02546875 -45.948125 77.02546875 -44.875 76.03125 C-24.99634178 57.11446234 -12.4293241 32.14467153 -3.17041016 6.72216797 C-1.10459184 1.10459184 -1.10459184 1.10459184 0 0 Z " fill="#003ED4" transform="translate(2689,1734)"/>
<path d="M0 0 C12.43001238 9.40803689 22.1091387 23.52443166 24.3046875 39.18359375 C25.67224844 56.79140417 23.36746191 72.53878362 12.234375 86.84375 C0.86225649 99.97914124 -13.01158616 108.30331005 -30.4453125 109.99609375 C-47.65826157 110.87259278 -62.46762505 106.2343107 -75.6953125 95.18359375 C-76.41460938 94.58933594 -77.13390625 93.99507812 -77.875 93.3828125 C-86.05170022 85.9537872 -92.11575251 74.9068886 -94.6953125 64.18359375 C-94.87578125 63.47203125 -95.05625 62.76046875 -95.2421875 62.02734375 C-98.05312003 44.38631888 -94.97201898 27.90262155 -84.6953125 13.18359375 C-75.95614826 1.36309073 -63.90573945 -6.25850502 -49.6953125 -9.81640625 C-48.55449219 -10.10257813 -48.55449219 -10.10257813 -47.390625 -10.39453125 C-30.38379899 -13.05646923 -14.28641549 -9.62780174 0 0 Z " fill="#003ED4" transform="translate(2789.6953125,1619.81640625)"/>
</svg>
